<?xml version="1.0" encoding="UTF-8" standalone="no"?>
<!-- Created with Inkscape (http://www.inkscape.org/) -->

<svg
   width="71.896416mm"
   height="73.943283mm"
   viewBox="0 0 71.896416 73.943283"
   version="1.1"
   id="svg1815"
   xmlns:inkscape="http://www.inkscape.org/namespaces/inkscape"
   xmlns:sodipodi="http://sodipodi.sourceforge.net/DTD/sodipodi-0.dtd"
   xmlns="http://www.w3.org/2000/svg"
   xmlns:svg="http://www.w3.org/2000/svg">
  <sodipodi:namedview
     id="namedview1817"
     pagecolor="#505050"
     bordercolor="#eeeeee"
     borderopacity="1"
     inkscape:showpageshadow="0"
     inkscape:pageopacity="0"
     inkscape:pagecheckerboard="0"
     inkscape:deskcolor="#505050"
     inkscape:document-units="mm"
     showgrid="false" />
  <defs
     id="defs1812">
    <clipPath
       clipPathUnits="userSpaceOnUse"
       id="clipPath1772">
      <g
         id="g1776"
         transform="translate(-566.5928,-822.2495)">
        <path
           d="M 0,1094 H 792 V 0 H 0 Z"
           id="path1774" />
      </g>
    </clipPath>
    <clipPath
       clipPathUnits="userSpaceOnUse"
       id="clipPath1712">
      <g
         id="g1716"
         transform="translate(-622.0039,-914.0352)">
        <path
           d="M 0,1094 H 792 V 0 H 0 Z"
           id="path1714" />
      </g>
    </clipPath>
    <clipPath
       clipPathUnits="userSpaceOnUse"
       id="clipPath1706">
      <g
         id="g1710"
         transform="translate(-525.2021,-890.3271)">
        <path
           d="M 0,1094 H 792 V 0 H 0 Z"
           id="path1708" />
      </g>
    </clipPath>
    <clipPath
       clipPathUnits="userSpaceOnUse"
       id="clipPath1700">
      <g
         id="g1704"
         transform="translate(-526.4932,-891.5942)">
        <path
           d="M 0,1094 H 792 V 0 H 0 Z"
           id="path1702" />
      </g>
    </clipPath>
  </defs>
  <g
     inkscape:label="Capa 1"
     inkscape:groupmode="layer"
     id="layer1"
     transform="translate(-65.648141,-96.11958)">
    <g
       id="g33"
       transform="matrix(0.35277777,0,0,-0.35277777,97.433834,170.06286)"
       clip-path="url(#clipPath1772)">
      <path
         d="m 0,0 c -2.382,0 -4.821,0.224 -7.276,0.676 -8.879,1.637 -17.243,6.199 -22.415,12.221 l -50.135,42.915 -0.176,0.195 c -7.4,8.24 -10.763,18.129 -9.991,29.39 l 0.056,0.452 13.765,74.703 0.13,0.341 c 4.753,12.468 13.763,20.713 27.545,25.208 l 58.728,20.629 c 5.82,2.79 13.058,3.581 20.401,2.228 8.241,-1.52 16.018,-5.578 21.91,-11.433 l 49.149,-41.996 c 9.49,-9.115 13.293,-20.775 11.63,-35.645 l -0.046,-0.305 -11.58,-60.716 C 100,42.223 91.143,30.341 76.062,24.402 L 75.898,24.343 14.061,3.027 C 9.933,1.025 5.1,0 0,0"
         style="fill:#303030;fill-opacity:1;fill-rule:nonzero;stroke:none"
         id="path35" />
    </g>
    <g
       id="g73"
       transform="matrix(0.35277777,0,0,-0.35277777,116.98164,137.6829)"
       clip-path="url(#clipPath1712)">
      <path
         d="m 0,0 c 0,-12.602 -6.484,-18.679 -16.655,-18.679 h -16.244 l 6.389,31.956 0.459,2.291 5.342,26.706 11.57,0.071 c 7.665,0 12.235,-3.751 12.235,-12.138 0,-9.847 -4.135,-15.78 -11.824,-17.27 C -3.48,11.829 0,7.87 0,0 m -33.142,-14.755 h -7.798 l 0.099,0.5 5.738,1.049 2.097,-0.87 z m -6.43,6.84 2.771,-3.316 -3.562,-0.638 z m 0.599,3.001 7.199,-3.006 -0.756,-3.781 -2.037,0.845 -4.523,5.354 z m 1.613,8.062 7.198,-3.006 -0.265,-1.325 -0.932,0.399 -0.884,-4.401 -1.475,0.609 0.751,3.741 -1.705,0.704 -0.749,-3.729 -1.359,0.56 0.85,4.233 -1.728,0.727 z m 1.12,5.602 2.99,-1.244 -0.647,-3.226 -2.989,1.243 z m 7.199,-3.008 -0.646,-3.227 -2.302,0.958 0.648,3.226 z m -6.386,7.075 7.199,-3.006 -0.338,-1.692 -7.199,3.006 z m 0.814,4.067 7.199,-3.007 -0.339,-1.691 -7.199,3.006 z m 0.522,2.608 0.291,1.458 7.199,-3.006 -0.338,-1.692 -7.199,3.006 z m 4.287,4.177 -0.342,-1.703 -1.554,0.649 0.338,1.679 c 0.125,0.624 0.403,0.955 0.859,0.863 0.623,-0.125 0.867,-0.648 0.699,-1.488 m 3.283,-0.983 -0.415,-2.063 -1.634,0.678 0.421,2.098 c 0.116,0.576 0.401,0.942 0.905,0.841 0.672,-0.135 0.89,-0.727 0.723,-1.554 m -5.433,7.489 7.198,-3.006 -0.35,-1.754 c -0.329,0.594 -0.848,1.024 -1.616,1.178 -0.779,0.157 -1.436,-0.135 -1.893,-0.792 -0.2,0.988 -0.79,1.718 -1.797,1.92 -1.191,0.239 -2.065,-0.543 -2.479,-2.228 z m 1.12,5.602 3.011,-1.252 -0.648,-3.226 -3.008,1.251 z m 7.198,-3.007 -0.645,-3.227 -2.281,0.949 0.648,3.225 z m -6.385,7.074 7.199,-3.006 -0.338,-1.692 -7.199,3.006 z m 1.271,6.355 h 0.003 l -0.46,-2.288 7.198,-3.006 -0.338,-1.692 -7.199,3.006 z m 11.57,0.07 c 3.811,0 6.853,-0.928 8.952,-2.89 -0.418,0.024 -0.842,0.043 -1.283,0.043 l -12.009,-0.073 -0.013,-0.07 -6.994,2.921 z M 14.706,14.653 c 10.1,4.252 16.611,12.092 16.611,23.253 0,13.953 -11.295,21.793 -32.29,21.793 h -20.036 -26.709 -0.293 L -77.482,22.413 -92.098,59.699 h -26.443 l 23.652,-59.74 -0.656,-3.22 c 1.007,2.062 2.69,3.445 5.147,4.198 l 10.959,3.636 c 0.747,0.337 1.584,0.507 2.488,0.507 0.485,0 0.982,-0.05 1.475,-0.15 1.572,-0.319 3.049,-1.118 4.169,-2.255 l 9.007,-7.975 0.039,-0.04 c 1.763,-1.765 2.477,-4.079 2.121,-6.878 l -0.009,-0.072 -2.359,-11.292 c -0.366,-3.158 -2.118,-5.439 -5.06,-6.545 l -10.878,-3.54 h 3.181 2.156 l 57.653,0.352 c 23.918,0 42.653,9.3 42.653,29.499 0,8.636 -4.517,15.014 -12.491,18.469"
         style="fill:#e7e7e7;fill-opacity:1;fill-rule:nonzero;stroke:none"
         id="path75" />
    </g>
    <g
       id="g77"
       transform="matrix(0.35277777,0,0,-0.35277777,82.832116,146.04659)"
       clip-path="url(#clipPath1706)">
      <path
         d="m 0,0 -0.082,0.095 c -1.172,1.373 -1.795,3.026 -1.826,4.82 L -4.939,-9.959 h 16.598 c -0.978,0.451 -1.847,1.061 -2.478,1.816 z"
         style="fill:#e7e7e7;fill-opacity:1;fill-rule:nonzero;stroke:none"
         id="path79" />
    </g>
    <g
       id="g81"
       transform="matrix(0.35277777,0,0,-0.35277777,83.287587,145.59959)"
       clip-path="url(#clipPath1700)">
      <path
         d="m 0,0 9.192,-8.153 0.054,-0.065 c 0.731,-0.894 1.962,-1.588 3.294,-1.857 1.128,-0.229 2.218,-0.134 3.07,0.267 l 0.124,0.049 11.574,3.762 c 2.299,0.865 3.615,2.585 3.908,5.115 l 0.013,0.08 2.351,11.252 c 0.285,2.248 -0.24,4.007 -1.607,5.376 l -9.015,7.982 c -0.878,0.908 -2.04,1.542 -3.281,1.794 -1.061,0.214 -2.091,0.126 -2.9,-0.249 L 16.664,25.308 5.642,21.652 C 3.5,20.996 2.152,19.83 1.392,17.981 L -1.375,4.317 C -1.507,2.675 -1.045,1.223 0,0"
         style="fill:#b1ff9b;fill-opacity:1;fill-rule:nonzero;stroke:none"
         id="path83" />
    </g>
  </g>
</svg>
